<?xml version="1.0" encoding="utf-8"?>
<!-- Generator: Adobe Illustrator 24.1.1, SVG Export Plug-In . SVG Version: 6.00 Build 0)  -->
<svg version="1.1" id="Layer_1" xmlns="http://www.w3.org/2000/svg" xmlns:xlink="http://www.w3.org/1999/xlink" x="0px" y="0px"
	 viewBox="0 0 512 512" style="enable-background:new 0 0 512 512;" xml:space="preserve">
<style type="text/css">
	.st0{fill:#FFFFFF;}
</style>
<g>
	<path class="st0" d="M453.7,227.3l53.8-48.4c2.2-2,3.3-4.8,2.8-7.6c-0.4-2.8-2.3-5.2-5.1-6.6l-64.7-32c-4.8-2.4-10.9-0.8-13.5,3.5
		c-2.6,4.3-0.9,9.8,3.9,12.2l53.1,26.2l-46.2,41.6l-166.1-82.1l46.2-41.6l139.9,69.1c4.8,2.4,7.1,1.2,9.8-3.1
		c2.7-4.3-6.5-15.8-11.4-18.2L320.9,73.6c-3.9-1.9-8.7-1.3-11.8,1.5l-53.8,48.4l-53.8-48.4c-3.1-2.8-8-3.4-11.8-1.5L5.2,164.7
		c-2.7,1.4-4.6,3.8-5.1,6.6c-0.4,2.8,0.6,5.6,2.8,7.6l53.8,48.4L2.9,275.8c-2.2,2-3.3,4.8-2.8,7.6c0.4,2.8,2.3,5.2,5.1,6.6
		l55.7,27.5v92c0,3.3,2,6.3,5.2,7.9l184.4,91.1c1.5,0.7,3.1,1.1,4.8,1.1c1.7,0,3.3-0.4,4.8-1.1l184.4-91.1c3.2-1.6,5.2-4.6,5.2-7.9
		v-92l55.7-27.5c2.7-1.4,4.6-3.8,5.1-6.6c0.4-2.8-0.6-5.6-2.8-7.6L453.7,227.3z M255.2,308.2L91.6,227.3l163.6-80.9l163.6,80.9
		L255.2,308.2z M192.6,92.5l46.2,41.6L72.6,216.2l-46.2-41.6L192.6,92.5z M72.6,238.4l166.1,82.1l-46.2,41.6L26.4,280L72.6,238.4z
		 M429.6,404.2l-164.4,81.2l-1-162.7c0-5-3.5,0-9,0c-5.5,0-9,0.4-9,5.4l-1,157.3L80.8,404.2v-76.9l108.7,53.7
		c1.5,0.7,3.2,1.1,4.8,1.1c2.6,0,5.1-0.9,7.1-2.6l53.8-48.4l53.8,48.4c1.9,1.7,4.5,2.6,7.1,2.6c1.6,0,3.3-0.4,4.8-1.1l108.7-53.7
		V404.2z M317.8,362.1l-46.2-41.6l166.1-82.1L484,280L317.8,362.1z"/>
	<path class="st0" d="M452.2,113.8c2,5.6,8.7,8.7,15,6.9l29.6-8.6c14.8-4.8,7.8-24.3-7.3-20.4c0,0-29.6,8.6-29.6,8.6
		C453.6,102.1,450.1,108.2,452.2,113.8z"/>
	<path class="st0" d="M404.8,71.2c2.5-0.6,4.9-1.9,6.5-3.9L430,45c4-4.7,2.9-11.4-2.3-15c-5.2-3.6-12.7-2.6-16.7,2.1l-18.7,22.3
		C385.5,62.4,394.1,73.8,404.8,71.2z"/>
	<path class="st0" d="M296.2,47.5c6.1,1.8,13-1.2,15-6.9c0,0,9.5-26.6,9.5-26.6C325,0.4,303.4-5.9,298,7.5c0,0-9.5,26.6-9.5,26.6
		C286.5,39.7,290,45.7,296.2,47.5z"/>
	<path class="st0" d="M199.2,40.6c5.3,13.4,27,7,22.7-6.5c0,0-9.5-26.6-9.5-26.6c-2-5.6-8.7-8.7-15-6.9c-6.3,1.8-9.7,7.8-7.7,13.5
		L199.2,40.6z"/>
	<path class="st0" d="M87.2,51.5L105,74.4c1.6,2.1,3.9,3.5,6.4,4.1c10.6,2.9,19.6-8.1,13.1-16.4c0,0-17.8-22.9-17.8-22.9
		C97.3,27.9,78.6,39.6,87.2,51.5z"/>
	<path class="st0" d="M15.2,104.1l25,16.6c13,8,26.5-8.4,14.1-17.2c0,0-25-16.6-25-16.6C16.4,78.9,2.9,95.3,15.2,104.1z"/>
</g>
</svg>
