<?xml version="1.0" encoding="utf-8"?>
<!-- Generator: Adobe Illustrator 24.1.1, SVG Export Plug-In . SVG Version: 6.00 Build 0)  -->
<svg version="1.1" id="Capa_1" xmlns="http://www.w3.org/2000/svg" xmlns:xlink="http://www.w3.org/1999/xlink" x="0px" y="0px"
	 viewBox="0 0 322.6 322.6" style="enable-background:new 0 0 322.6 322.6;" xml:space="preserve">
<style type="text/css">
	.st0{fill:#FFFFFF;}
</style>
<g>
	<g>
		<g>
			<path class="st0" d="M321.6,180.6c-0.8-1.6-2.8-2.4-4.4-2.8c-9.2,0-88.4-3.2-88.4-95.2c0-2.8-2.4-5.2-5.2-5.2s-5.2,2.4-5.2,5.2
				c0,92-79.2,95.2-88,95.2c-1.2,0-2.4,0.4-3.2,1.2c-0.8,0.4-1.2,1.2-1.6,1.6c-0.8,1.6-0.8,3.6,0,5.2c0.8,1.6,2.8,2.8,4.8,2.8
				c0,0,0,0,0.4,0c9.2,0,88,3.2,88,95.2c0,2.8,2.4,5.2,5.2,5.2s5.2-2.4,5.2-5.2c0-91.6,78.8-95.2,88-95.2c2,0,3.6-1.2,4.8-2.8
				C322.8,184.2,322.8,182.2,321.6,180.6z M223.6,244.6c-11.6-38-40-54.4-62.4-61.6c22.4-7.2,50.8-23.6,62.4-61.6
				c11.6,38,40,54.4,62.4,61.6C263.6,190.2,235.2,206.6,223.6,244.6z"/>
			<path class="st0" d="M157.6,76.6c2.8,0,5.2-2.4,5.2-5.6c0-2.8-2.4-5.2-5.2-5.2c-4.8,0-48-1.6-48-52c0-2.8-2.4-5.2-5.2-5.2
				c-2.8,0-5.2,2.4-5.2,5.2c0,50.4-43.2,52-48,52c-0.4,0-0.4,0-0.4,0C48,66.2,46,68.2,46,71s2.4,5.2,5.2,5.2c5.2,0,48,1.6,48,52
				c0,2.8,2.4,5.2,5.2,5.2c2.4,0.4,4.8-2,4.8-4.8c0-50.4,43.2-52,48-52L157.6,76.6L157.6,76.6z M104,99.4C97.6,84.2,86,75.8,75.2,71
				c11.6-4.8,22.4-14,28.8-28.4c6.4,15.2,18,23.6,28.8,28.4C121.2,75.8,110.4,85,104,99.4z"/>
			<path class="st0" d="M111.6,246.2c-4.8,0-48-1.6-48-52c0-2.8-2.4-5.2-5.2-5.2s-5.2,2.4-5.2,5.2c0,50.4-43.2,52-48,52
				c-0.4,0-0.4,0-0.4,0C2,246.6,0,248.6,0,251.4s2.4,5.2,5.2,5.2c5.2,0,48,1.6,48,52c0,2.8,2.4,5.2,5.2,5.2c2.4,0.8,4.8-1.6,4.8-4.8
				c0-50.4,43.2-52,48-52h0.4c2.8,0,5.2-2.4,5.2-5.6C116.8,248.6,114.4,246.2,111.6,246.2z M58,280.2c-6.8-15.2-18-23.6-28.8-28.4
				c11.6-4.8,22.4-14,28.8-28.4c6.4,15.2,18,23.6,28.8,28.4C75.2,256.6,64.4,265.8,58,280.2z"/>
		</g>
	</g>
</g>
</svg>
