<svg id="etaj" class="layer hide" xmlns="http://www.w3.org/2000/svg" viewBox="0 0 1201 2006.23" width="100%">
        <rect class="boxa-libera" y="1694.48" width="499.53" height="299.71" /><text class="svg-text"
            transform="translate(189.1 1868.31)">E1S</text>
        <rect class="boxa-libera" x="1.09" y="1482.68" width="499.53" height="199.83" /><text class="svg-text"
            transform="translate(188.6 1615.21)">E2S</text>
        <rect class="boxa-libera" x="1.09" y="1270.87" width="499.53" height="199.83" /><text class="svg-text"
            transform="translate(188.6 1400.62)">E3S</text>
        <rect class="boxa-libera" x="1.09" y="1059.07" width="499.53" height="199.83" /><text class="svg-text"
            transform="translate(188.6 1190.79)">E4S</text>
        <rect class="boxa-libera" x="1.09" y="847.27" width="499.53" height="199.83" /><text class="svg-text"
            transform="translate(188.6 980.96)">E5S</text>
        <rect class="boxa-libera" x="1.09" y="635.4" width="499.53" height="199.83" /><text class="svg-text"
            transform="translate(188.6 772.7)">E6S</text>
        <rect class="boxa-libera" x="1.09" y="423.6" width="499.53" height="199.83" /><text class="svg-text"
            transform="translate(188.6 558.11)">E7S</text>
        <rect class="boxa-libera" x="1.09" y="211.8" width="499.53" height="199.83" /><text class="svg-text"
            transform="translate(188.6 343.52)">E8S</text>
        <rect class="boxa-libera" x="1.09" width="499.53" height="199.83" /><text class="svg-text"
            transform="translate(188.6 127.3)">E9S</text>
        <rect class="boxa-libera" x="701.47" width="499.53" height="199.83" /><text class="svg-text"
            transform="translate(884.08 127.3)">E7D</text>
        <rect class="boxa-libera" x="701.47" y="211.8" width="499.53" height="199.83" /><text class="svg-text"
            transform="translate(884.08 337.13)">E6D</text>
        <rect class="boxa-libera" x="701.47" y="423.6" width="499.53" height="199.83" /><text class="svg-text"
            transform="translate(884.08 551.79)">E5D</text>
        <rect class="boxa-libera" x="701.47" y="635.4" width="499.53" height="199.83" /><text class="svg-text"
            transform="translate(884.08 772.7)">E4D</text>
        <rect class="boxa-libera" x="701.47" y="847.27" width="499.53" height="199.83" /><text class="svg-text"
            transform="translate(884.08 980.96)">E3D</text>
        <rect class="boxa-libera" x="701.47" y="1059.07" width="499.53" height="199.83" /><text class="svg-text"
            transform="translate(884.08 1190.79)">E2D</text>
        <rect class="boxa-libera" x="701.47" y="1270.87" width="499.53" height="199.83" /><text class="svg-text"
            transform="translate(884.08 1400.62)">E1D</text>
        <polygon class="boxa-libera" points="1201 2004.18 1005.19 2006.22 701.47 1482.68 1201 1482.68 1201 2004.18" />
        <text class="svg-text" transform="translate(933.34 1744.41)">Birou</text>
    </svg>