<?xml version="1.0" encoding="utf-8"?>
<!-- Generator: Adobe Illustrator 24.1.1, SVG Export Plug-In . SVG Version: 6.00 Build 0)  -->
<svg version="1.1" id="Layer_1" xmlns="http://www.w3.org/2000/svg" xmlns:xlink="http://www.w3.org/1999/xlink" x="0px" y="0px"
	 viewBox="0 0 500 200" style="enable-background:new 0 0 500 200;" xml:space="preserve">
<style type="text/css">
	.st0{fill:#2F85C5;}
	.st1{enable-background:new    ;}
</style>
<g id="icon">
	<path class="st0" d="M4.5,98.7l67.1,19.6c1.6,0.5,3.3-0.1,4.2-1.5l19.6-28.3l-65.7-18c-0.9-0.3-1.9,0.1-2.5,0.8L4.5,98.7z"/>
	<path class="st0" d="M8,40.3l18.9,27.8c0.8,1.2,2.3,1.7,3.6,1.3l68.3-19.3c0.6-0.2,0.9-0.8,0.8-1.3c0-0.2-0.1-0.3-0.2-0.4
		L74.6,21.1L8,40.3z"/>
	<path class="st0" d="M186.5,40.7l-19.8,27.5c-0.4,0.5-1.1,0.8-1.7,0.6L97.5,49.4c-0.1,0-0.1-0.1-0.1-0.2l0,0L119.6,22
		c0.4-0.5,1-0.7,1.6-0.5l64.3,16.8c0.8,0.2,1.4,1.1,1.1,1.9c0,0,0,0,0,0.1C186.6,40.4,186.6,40.6,186.5,40.7z"/>
	<path class="st0" d="M191,97.9l-25-28.8l-66,19.1l20,28.8c0.9,1.3,2.5,1.8,4,1.4L191,97.9z"/>
	<path class="st0" d="M96.7,94.1v84.7l-67.8-25.5v-44.4L72,122c2.5,0.8,5.2-0.2,6.7-2.3L96.7,94.1z"/>
	<path class="st0" d="M100,94.1v84.7l67.9-25.5v-44.4l-44.8,13.6c-1.5,0.5-3.2-0.1-4.1-1.4L100,94.1z"/>
	<path class="st0" d="M43.4,68.8l52.4-15.6c1.7-0.5,3.6-0.5,5.3,0L150,68.1l-45-10.6c-1.7-0.4-3.5,0.6-3.9,2.4c0,0.1,0,0.3-0.1,0.4
		l-2.8,24l-1.6-22.9c-0.1-1.8-1.7-3.1-3.4-3c-0.2,0-0.3,0-0.4,0.1L43.4,68.8z"/>
</g>
<g class="st1">
	<path d="M209,80V37.3h13.9c4.6,0,8.1,1,10.4,2.9c2.3,1.9,3.5,4.7,3.5,8.5c0,2-0.6,3.8-1.7,5.3c-1.1,1.5-2.7,2.7-4.6,3.6
		c2.3,0.6,4.1,1.9,5.5,3.7c1.3,1.8,2,4,2,6.5c0,3.8-1.2,6.8-3.7,9c-2.5,2.2-6,3.3-10.5,3.3H209z M214.6,55.5h8.5
		c2.5,0,4.4-0.6,5.9-1.8c1.5-1.2,2.2-2.9,2.2-5c0-2.3-0.7-4.1-2.1-5.1c-1.4-1.1-3.4-1.6-6.2-1.6h-8.3V55.5z M214.6,60v15.4h9.3
		c2.6,0,4.7-0.7,6.2-2c1.5-1.4,2.3-3.2,2.3-5.6c0-5.1-2.8-7.7-8.4-7.7H214.6z"/>
	<path d="M244.3,63.9c0-3.1,0.6-5.9,1.8-8.4c1.2-2.5,2.9-4.4,5.1-5.7c2.2-1.3,4.7-2,7.5-2c4.3,0,7.8,1.5,10.5,4.5s4,7,4,11.9v0.4
		c0,3.1-0.6,5.9-1.8,8.3s-2.9,4.4-5.1,5.7s-4.7,2.1-7.6,2.1c-4.3,0-7.8-1.5-10.4-4.5s-4-6.9-4-11.9V63.9z M249.8,64.5
		c0,3.5,0.8,6.3,2.4,8.5s3.8,3.2,6.5,3.2c2.8,0,4.9-1.1,6.6-3.2c1.6-2.2,2.4-5.2,2.4-9.1c0-3.5-0.8-6.3-2.5-8.5s-3.8-3.2-6.6-3.2
		c-2.7,0-4.8,1.1-6.5,3.2S249.8,60.5,249.8,64.5z"/>
	<path d="M290.3,59.9l7-11.6h6.3L293.3,64L304,80h-6.3l-7.3-11.9L283.1,80h-6.3l10.7-16l-10.4-15.7h6.3L290.3,59.9z"/>
	<path d="M322.3,80.6c-4.3,0-7.8-1.4-10.5-4.2s-4-6.6-4-11.3v-1c0-3.1,0.6-6,1.8-8.4s2.9-4.4,5-5.8s4.5-2.1,7-2.1
		c4.1,0,7.3,1.4,9.6,4.1s3.4,6.6,3.4,11.7v2.3h-21.5c0.1,3.1,1,5.6,2.7,7.6s4,2.9,6.7,2.9c1.9,0,3.5-0.4,4.9-1.2
		c1.3-0.8,2.5-1.8,3.5-3.1l3.3,2.6C331.6,78.5,327.6,80.6,322.3,80.6z M321.6,52.2c-2.2,0-4,0.8-5.5,2.4c-1.5,1.6-2.4,3.8-2.8,6.7
		h15.9v-0.4c-0.2-2.8-0.9-4.9-2.2-6.4C325.7,52.9,323.9,52.2,321.6,52.2z"/>
</g>
<g class="st1">
	<path d="M209,152v-42.7h12c3.7,0,7,0.8,9.8,2.5c2.9,1.6,5.1,4,6.6,7s2.3,6.5,2.4,10.4v2.7c0,4-0.8,7.5-2.3,10.6s-3.8,5.4-6.7,7
		c-2.9,1.6-6.2,2.5-10.1,2.5H209z M214.6,113.9v33.5h5.9c4.3,0,7.7-1.3,10.1-4c2.4-2.7,3.6-6.5,3.6-11.5v-2.5
		c0-4.8-1.1-8.6-3.4-11.3c-2.3-2.7-5.5-4.1-9.7-4.1H214.6z"/>
	<path d="M260.9,152.6c-4.3,0-7.8-1.4-10.5-4.2s-4-6.6-4-11.3v-1c0-3.1,0.6-6,1.8-8.4s2.9-4.4,5-5.8s4.5-2.1,7-2.1
		c4.1,0,7.3,1.4,9.6,4.1s3.4,6.6,3.4,11.7v2.3h-21.5c0.1,3.1,1,5.6,2.7,7.6s4,2.9,6.7,2.9c1.9,0,3.5-0.4,4.9-1.2
		c1.3-0.8,2.5-1.8,3.5-3.1l3.3,2.6C270.2,150.5,266.2,152.6,260.9,152.6z M260.2,124.2c-2.2,0-4,0.8-5.5,2.4
		c-1.5,1.6-2.4,3.8-2.8,6.7h15.9v-0.4c-0.2-2.8-0.9-4.9-2.2-6.4C264.3,124.9,262.5,124.2,260.2,124.2z"/>
	<path d="M306.6,136.5c0,4.8-1.1,8.7-3.3,11.7s-5.2,4.4-9,4.4c-3.8,0-6.9-1.2-9.1-3.7v15.3h-5.4v-43.9h5l0.3,3.5
		c2.2-2.7,5.3-4.1,9.2-4.1c3.8,0,6.8,1.4,9,4.3c2.2,2.9,3.3,6.9,3.3,12V136.5z M301.2,135.9c0-3.6-0.8-6.4-2.3-8.5s-3.6-3.1-6.3-3.1
		c-3.3,0-5.7,1.5-7.4,4.4v15.1c1.6,2.9,4.1,4.3,7.4,4.3c2.6,0,4.7-1,6.2-3.1C300.4,143,301.2,139.9,301.2,135.9z"/>
	<path d="M312.4,135.9c0-3.1,0.6-5.9,1.8-8.4s2.9-4.4,5.1-5.7s4.7-2,7.5-2c4.3,0,7.8,1.5,10.5,4.5s4,7,4,11.9v0.4
		c0,3.1-0.6,5.9-1.8,8.3s-2.9,4.4-5.1,5.7s-4.7,2.1-7.6,2.1c-4.3,0-7.8-1.5-10.4-4.5s-4-6.9-4-11.9V135.9z M317.8,136.5
		c0,3.5,0.8,6.3,2.4,8.5s3.8,3.2,6.5,3.2c2.8,0,4.9-1.1,6.6-3.2c1.6-2.2,2.4-5.2,2.4-9.1c0-3.5-0.8-6.3-2.5-8.5s-3.8-3.2-6.6-3.2
		c-2.7,0-4.8,1.1-6.5,3.2S317.8,132.5,317.8,136.5z"/>
	<path d="M352.9,147.6h18.5v4.4h-25.2v-4l17.5-23.2h-17.2v-4.5h24v3.8L352.9,147.6z"/>
	<path d="M377.9,111.9c0-0.9,0.3-1.6,0.8-2.2c0.5-0.6,1.3-0.9,2.4-0.9s1.9,0.3,2.4,0.9s0.8,1.3,0.8,2.2s-0.3,1.6-0.8,2.2
		s-1.3,0.9-2.4,0.9s-1.9-0.3-2.4-0.9C378.2,113.5,377.9,112.8,377.9,111.9z M383.8,152h-5.4v-31.7h5.4V152z"/>
	<path d="M400.1,112.6v7.7h5.9v4.2h-5.9v19.7c0,1.3,0.3,2.2,0.8,2.9s1.4,1,2.7,1c0.6,0,1.5-0.1,2.6-0.4v4.4
		c-1.4,0.4-2.8,0.6-4.2,0.6c-2.4,0-4.2-0.7-5.5-2.2s-1.8-3.5-1.8-6.2v-19.7h-5.8v-4.2h5.8v-7.7H400.1z"/>
	<path d="M432.2,152c-0.3-0.6-0.6-1.7-0.8-3.3c-2.5,2.6-5.5,3.9-9,3.9c-3.1,0-5.7-0.9-7.7-2.7c-2-1.8-3-4-3-6.7
		c0-3.3,1.3-5.9,3.8-7.7c2.5-1.8,6-2.7,10.6-2.7h5.3v-2.5c0-1.9-0.6-3.4-1.7-4.5s-2.8-1.7-5-1.7c-1.9,0-3.6,0.5-4.9,1.5
		s-2,2.2-2,3.5h-5.4c0-1.6,0.6-3.1,1.7-4.6c1.1-1.5,2.6-2.6,4.6-3.5c1.9-0.9,4-1.3,6.3-1.3c3.7,0,6.5,0.9,8.6,2.7s3.1,4.3,3.2,7.5
		v14.6c0,2.9,0.4,5.2,1.1,6.9v0.5H432.2z M423.2,147.9c1.7,0,3.3-0.4,4.8-1.3s2.6-2,3.3-3.4v-6.5h-4.2c-6.6,0-10,1.9-10,5.8
		c0,1.7,0.6,3,1.7,4S421.4,147.9,423.2,147.9z"/>
	<path d="M460.9,125.2c-0.8-0.1-1.7-0.2-2.7-0.2c-3.6,0-6,1.5-7.2,4.5V152h-5.4v-31.7h5.3l0.1,3.7c1.8-2.8,4.3-4.2,7.6-4.2
		c1.1,0,1.9,0.1,2.4,0.4V125.2z"/>
	<path d="M478.8,152.6c-4.3,0-7.8-1.4-10.5-4.2s-4-6.6-4-11.3v-1c0-3.1,0.6-6,1.8-8.4s2.9-4.4,5-5.8s4.5-2.1,7-2.1
		c4.1,0,7.3,1.4,9.6,4.1s3.4,6.6,3.4,11.7v2.3h-21.5c0.1,3.1,1,5.6,2.7,7.6s4,2.9,6.7,2.9c1.9,0,3.5-0.4,4.9-1.2
		c1.3-0.8,2.5-1.8,3.5-3.1l3.3,2.6C488.1,150.5,484.1,152.6,478.8,152.6z M478.1,124.2c-2.2,0-4,0.8-5.5,2.4
		c-1.5,1.6-2.4,3.8-2.8,6.7h15.9v-0.4c-0.2-2.8-0.9-4.9-2.2-6.4C482.2,124.9,480.4,124.2,478.1,124.2z"/>
</g>
</svg>
