<svg id="Layer_1" data-name="Layer 1" xmlns="http://www.w3.org/2000/svg" viewBox="0 0 469.75 397.14"><defs><style>.cls-1{fill:#2f85c5;}</style></defs><title>Logo SVG</title><g id="icon"><path class="cls-1" d="M62.76,414.23l169,49.39a9.64,9.64,0,0,0,10.64-3.77l49.39-71.3L126.38,343.08a6.16,6.16,0,0,0-6.39,2Z" transform="translate(-62.76 -218.86)"/><path class="cls-1" d="M71.59,267l47.58,70.07a8.15,8.15,0,0,0,9.09,3.23l172-48.63a2.73,2.73,0,0,0,1.27-4.46l-62.22-68.35Z" transform="translate(-62.76 -218.86)"/><path class="cls-1" d="M521.08,268.12l-49.9,69.21a4,4,0,0,1-4.35,1.5L297.09,290a.31.31,0,0,1-.16-.5l55.85-68.64a4,4,0,0,1,4.11-1.34l162,42.4A4,4,0,0,1,521.08,268.12Z" transform="translate(-62.76 -218.86)"/><path class="cls-1" d="M532.51,412.22l-63-72.61L303.45,387.75l50.4,72.42a9,9,0,0,0,10.06,3.48Z" transform="translate(-62.76 -218.86)"/><path class="cls-1" d="M295,402.59V616L124.14,551.82V439.9l108.64,32.92A15.18,15.18,0,0,0,249.6,467Z" transform="translate(-62.76 -218.86)"/><path class="cls-1" d="M303.45,402.59V616l170.9-64.19V439.9L361.61,474.06a9.25,9.25,0,0,1-10.26-3.53Z" transform="translate(-62.76 -218.86)"/><path class="cls-1" d="M160.84,339l132-39.31a23.39,23.39,0,0,1,13.49,0L429.22,337,315.78,310.23a8.14,8.14,0,0,0-10,7l-7,60.3-4.14-57.69a8.11,8.11,0,0,0-9.79-7.35Z" transform="translate(-62.76 -218.86)"/></g></svg>