<?xml version="1.0" encoding="utf-8"?>
<!-- Generator: Adobe Illustrator 24.1.1, SVG Export Plug-In . SVG Version: 6.00 Build 0)  -->
<svg version="1.1" id="Layer_1" xmlns="http://www.w3.org/2000/svg" xmlns:xlink="http://www.w3.org/1999/xlink" x="0px" y="0px"
	 viewBox="0 0 512 512" style="enable-background:new 0 0 512 512;" xml:space="preserve">
<style type="text/css">
	.st0{fill:#FFFFFF;}
</style>
<path class="st0" d="M506.8,152.7l-172-94.4c-3-1.6-6.6-1.6-9.6,0l-64.7,35.5c-1.5,0.4-2.8,1.2-4,2.2l-103.3,56.7
	c-3.2,1.8-5.2,5.1-5.2,8.8v20.4H32.6c-5.5,0-10,4.5-10,10c0,5.5,4.5,10,10,10H148v36H90.7c-5.5,0-10,4.5-10,10c0,5.5,4.5,10,10,10
	H148v52H64c-5.5,0-10,4.5-10,10c0,5.5,4.5,10,10,10h84v20.4c0,3.6,2,7,5.2,8.8l172,94.4c1.5,0.8,3.2,1.2,4.8,1.2s3.3-0.4,4.8-1.2
	l172-94.4c3.2-1.8,5.2-5.1,5.2-8.8v-44.8c0-5.5-4.5-10-10-10s-10,4.5-10,10v38.9l-152,83.5V261.8l48.3-26.5v42.1
	c0,3.5,1.9,6.8,4.9,8.6c1.6,0.9,3.3,1.4,5.1,1.4c1.7,0,3.3-0.4,4.8-1.2l36.9-20.3c3.2-1.8,5.2-5.1,5.2-8.8V204l46.8-25.7v47.2
	c0,5.5,4.5,10,10,10s10-4.5,10-10v-64.1C512,157.8,510,154.4,506.8,152.7z M320,427.9l-152-83.5V178.3l152,83.5V427.9z M330,244.5
	l-151.2-83l47.5-26.1l151.2,83L330,244.5z M398.3,207l-151.2-83l16.4-9l151.2,83L398.3,207z M425.2,251.2l-16.9,9.3v-36.2l16.9-9.3
	V251.2z M435.5,186.6l-151.2-83L330,78.4l151.2,83L435.5,186.6z"/>
<path class="st0" d="M502,255.6c-2.6,0-5.2,1.1-7.1,2.9c-1.9,1.9-2.9,4.4-2.9,7.1c0,2.6,1.1,5.2,2.9,7.1s4.4,2.9,7.1,2.9
	s5.2-1.1,7.1-2.9s2.9-4.4,2.9-7.1c0-2.6-1.1-5.2-2.9-7.1C507.2,256.6,504.6,255.6,502,255.6z"/>
<path class="st0" d="M24.3,309.9H10c-5.5,0-10,4.5-10,10c0,5.5,4.5,10,10,10h14.3c5.5,0,10-4.5,10-10
	C34.3,314.4,29.9,309.9,24.3,309.9z"/>
<path class="st0" d="M60.7,247.9c0-2.6-1.1-5.2-2.9-7.1c-1.9-1.9-4.4-2.9-7.1-2.9c-2.6,0-5.2,1.1-7.1,2.9c-1.9,1.9-2.9,4.4-2.9,7.1
	c0,2.6,1.1,5.2,2.9,7.1c1.9,1.9,4.4,2.9,7.1,2.9c2.6,0,5.2-1.1,7.1-2.9C59.6,253.1,60.7,250.5,60.7,247.9z"/>
</svg>
