<?xml version="1.0" encoding="utf-8"?>
<!-- Generator: Adobe Illustrator 24.1.1, SVG Export Plug-In . SVG Version: 6.00 Build 0)  -->
<svg version="1.1" id="Capa_1" xmlns="http://www.w3.org/2000/svg" xmlns:xlink="http://www.w3.org/1999/xlink" x="0px" y="0px"
	 viewBox="0 0 305.8 305.8" style="enable-background:new 0 0 305.8 305.8;" xml:space="preserve">
<style type="text/css">
	.st0{fill:#FFFFFF;}
</style>
<g>
	<path class="st0" d="M305.8,147.8c0-26.6-6.9-52.7-20-75.7c-5.9-10.3-19-13.9-29.4-8c-10.3,5.9-13.9,19-8,29.4
		c9.4,16.5,14.4,35.3,14.4,54.3c0,60.6-49.3,109.9-109.9,109.9C92.3,257.7,43,208.4,43,147.8c0-22.1,6.8-43.4,19-61.5l7.6,17
		c4.2,9.4,14,8.1,22-2.9L138.3,36c8-11,3.5-21-10-22.5L49.2,5.3c-13.5-1.4-20.5,6.3-15.6,17.2c4.9,10.9,8.8,19.8,8.8,19.8
		C15.3,70.6,0,108.4,0,147.8c0,84.3,68.6,152.9,152.9,152.9C237.2,300.7,305.8,232.1,305.8,147.8z"/>
</g>
</svg>
