<svg id="Layer_1" data-name="Layer 1" xmlns="http://www.w3.org/2000/svg" viewBox="0 0 660.3 742.65"><defs><style>.cls-1{fill:#ccdef2;}.cls-2{fill:#eaa61f;}.cls-3{fill:#d88971;}.cls-4,.cls-71{fill:#fcc490;}.cls-5{fill:#b23f3f;}.cls-6{fill:#8c3535;}.cls-7{fill:#e5594e;}.cls-8{fill:#15497c;}.cls-9{fill:#1a5aa4;}.cls-10{fill:#13446b;}.cls-11{fill:#ffa85a;}.cls-12{fill:#a86951;}.cls-13{fill:#c2d8ef;}.cls-14{fill:#8a8aa8;}.cls-15{fill:#b0b0c6;}.cls-16{fill:#bf7666;}.cls-113,.cls-17{fill:#75d9f1;}.cls-18{fill:#279cd1;}.cls-19{fill:#a86256;}.cls-20{fill:#cccbdb;}.cls-21{fill:#8c8ca5;}.cls-108,.cls-21,.cls-55,.cls-62,.cls-87,.cls-96{opacity:0.6;}.cls-108,.cls-110,.cls-113,.cls-21,.cls-42,.cls-43,.cls-45,.cls-48,.cls-50,.cls-51,.cls-55,.cls-71,.cls-72,.cls-73,.cls-74,.cls-75,.cls-76,.cls-87,.cls-96{isolation:isolate;}.cls-22{fill:#eeefe6;}.cls-23{fill:#e5bf23;}.cls-24{fill:#fbf65a;}.cls-25{fill:#b87a53;}.cls-26{fill:#704136;}.cls-27{fill:#272523;}.cls-28{fill:#fed500;}.cls-108,.cls-110,.cls-29{fill:#fff;}.cls-30{fill:#5b5652;}.cls-31{fill:#1e2123;}.cls-32,.cls-51,.cls-75{fill:#505862;}.cls-33{fill:#737b84;}.cls-34{fill:#899122;}.cls-35{fill:#332e2b;}.cls-36{fill:#ff5245;}.cls-37{fill:#c7d821;}.cls-38{fill:#ce8d1b;}.cls-39{fill:#564d47;}.cls-40,.cls-48,.cls-73,.cls-74{fill:#f9dec1;}.cls-41,.cls-42{fill:#c1aa8a;}.cls-42{opacity:0.2;}.cls-43{fill:#93878d;}.cls-43,.cls-45,.cls-50,.cls-64,.cls-74{opacity:0.8;}.cls-44{fill:#d88850;}.cls-45,.cls-60{fill:#cec0b3;}.cls-46{fill:#ba5c2d;}.cls-47{fill:#ffb95c;}.cls-48,.cls-75{opacity:0.4;}.cls-49{fill:#d3bca1;}.cls-50{fill:#7f7077;}.cls-51{opacity:0.3;}.cls-52{fill:#100f0b;}.cls-53{fill:#d85825;}.cls-54{fill:#ff7415;}.cls-55{fill:#ff9852;}.cls-56{fill:#3f3a36;}.cls-57{fill:#5abcff;}.cls-58{fill:#aa9f93;}.cls-59{fill:#f2cdaf;}.cls-61{fill:#565050;}.cls-63{fill:#f4d7c1;}.cls-65{fill:#bf2e36;}.cls-66{fill:#525b6d;}.cls-67{fill:#6a7389;}.cls-68{fill:#9ba3ba;}.cls-69{fill:#aeb7ce;}.cls-70{fill:#4189e0;}.cls-104,.cls-110,.cls-113,.cls-71,.cls-73,.cls-76{opacity:0.5;}.cls-72{fill:#767687;opacity:0.7;}.cls-101,.cls-76,.cls-85,.cls-92,.cls-93,.cls-95{fill:none;}.cls-76{stroke:#998265;stroke-width:2.75px;}.cls-76,.cls-92,.cls-93{stroke-miterlimit:10;}.cls-77{fill:#bc7762;}.cls-78{fill:#d38a79;}.cls-79{fill:#403023;}.cls-80{fill:#4f3a2a;}.cls-81{fill:#683e3a;}.cls-82{fill:#16569b;}.cls-83{fill:#7c4a45;}.cls-84{fill:#177fbf;}.cls-85{stroke:#f28f7c;}.cls-101,.cls-85,.cls-92,.cls-93,.cls-95{stroke-linecap:round;}.cls-101,.cls-85,.cls-95{stroke-linejoin:round;}.cls-85,.cls-95{stroke-width:17.91px;}.cls-86{fill:#ffe536;}.cls-87{fill:#c67560;}.cls-88{fill:#8e3925;}.cls-89{fill:#ffb287;}.cls-90,.cls-96{fill:#e5785c;}.cls-91{fill:#422b27;}.cls-92{stroke:#8e3925;stroke-width:3.32px;}.cls-93{stroke:#e5785c;stroke-width:3.63px;}.cls-94{fill:#602c34;}.cls-95{stroke:#ffb287;}.cls-97{fill:#9fb9d1;}.cls-98{fill:#d64556;}.cls-99{fill:#7a1b38;}.cls-100{fill:#962643;}.cls-101{stroke:#ffa68a;stroke-width:5.11px;}.cls-102{fill:#ffa68a;}.cls-103{fill:#def1ff;}.cls-105{fill:#27a3e0;}.cls-106{fill:#632c42;}.cls-107{fill:#ffdc2b;}.cls-109{fill:#f7c52c;}.cls-111{fill:#db9314;}.cls-112{fill:#473f3c;}</style></defs><g id="Layer_1-2" data-name="Layer 1"><path class="cls-1" d="M7.65,742.65h645c4.21,0,7.65-2.75,7.65-6.13s-3.44-6.13-7.65-6.13H7.61c-4.2,0-7.65,2.75-7.65,6.13S3.41,742.65,7.65,742.65Z" transform="translate(0.04 0)"/><path class="cls-2" d="M479,230c-6.39,16.13,6.87,25.75,37.78,27.4s38.5,3.07,39.91-2.13c1.1-4-1.89-10.39-7.08-17.24C549.65,238,482.85,220.31,479,230Z" transform="translate(0.04 0)"/><rect class="cls-3" x="103.08" y="5.25" width="70.41" height="101.08"/><rect class="cls-4" x="172.17" y="5.25" width="84.01" height="101.08"/><rect class="cls-5" x="167.84" y="29.8" width="84.68" height="90.27"/><rect class="cls-6" x="183.17" y="29.8" width="84.68" height="90.27"/><rect class="cls-7" x="88.08" y="29.8" width="80.3" height="90.27"/><rect class="cls-8" x="273.03" y="12.13" width="13.47" height="593.16"/><rect class="cls-9" x="259.89" y="12.13" width="13.47" height="593.16"/><polygon class="cls-10" points="286.5 605.29 273.36 605.29 273.03 605.29 259.88 605.29 259.88 126.16 273.03 126.16 273.36 126.16 286.5 126.16 286.5 605.29"/><rect class="cls-11" x="251.68" y="149.29" width="84.68" height="90.27"/><rect class="cls-12" x="206.98" y="149.29" width="45.24" height="90.27"/><rect class="cls-13" x="149.44" y="141.98" width="52.25" height="99.04"/><polygon class="cls-14" points="156.88 170.46 175.82 154.69 180.8 155.02 180.8 142.18 189.29 142.18 189.29 183.48 209.14 253.73 156.88 253.73 156.88 170.46"/><rect class="cls-15" x="83.7" y="141.98" width="73.29" height="99.04"/><polygon class="cls-16" points="356.66 178.79 415.98 204.22 415.98 241.9 351.45 241.9 316.39 178.79 356.66 178.79"/><rect class="cls-17" x="400.93" y="175.29" width="9.93" height="56.68"/><rect class="cls-18" x="353.31" y="175.29" width="48.79" height="56.68"/><rect class="cls-17" x="388.95" y="175.29" width="9.93" height="56.68"/><rect class="cls-19" x="306.9" y="178.8" width="39.98" height="37.68"/><rect class="cls-18" x="341.33" y="175.29" width="48.79" height="56.68"/><rect class="cls-17" x="375.51" y="175.29" width="9.93" height="56.68"/><rect class="cls-18" x="327.89" y="175.29" width="48.79" height="56.68"/><polygon class="cls-3" points="268.19 179.08 319.27 179.08 376.54 204.21 376.54 241.9 303.25 241.9 268.19 179.08"/><rect class="cls-4" x="376.28" y="204.21" width="39.98" height="37.68"/><polygon class="cls-19" points="299.26 178.79 358.57 204.22 358.57 241.9 294.04 241.9 258.98 178.79 299.26 178.79"/><rect class="cls-4" x="246.13" y="178.8" width="39.98" height="37.68"/><polygon class="cls-20" points="306.08 167.78 282.46 167.78 274.91 204.7 298.52 204.7 306.08 167.78"/><polygon class="cls-21" points="285.5 167.84 303.29 167.84 295.51 206.6 277.71 204.26 285.5 167.84"/><rect class="cls-22" x="289.13" y="181.53" width="37.68" height="11.69" transform="translate(62.68 451.51) rotate(-78.43)"/><polygon class="cls-20" points="288.84 167.78 265.23 167.78 257.67 204.7 281.29 204.7 288.84 167.78"/><rect class="cls-22" x="271.89" y="181.53" width="37.68" height="11.69" transform="translate(48.89 434.62) rotate(-78.43)"/><rect class="cls-23" x="282.36" y="194.28" width="39.98" height="37.68"/><rect class="cls-24" x="313.33" y="194.28" width="39.98" height="37.68"/><polygon class="cls-3" points="245.84 179.08 261.87 179.08 319.13 204.21 319.13 241.9 245.84 241.9 245.84 179.08"/><rect class="cls-4" x="318.88" y="204.21" width="39.98" height="37.68"/><rect class="cls-25" x="89.06" y="262.93" width="70.41" height="101.08"/><rect class="cls-26" x="158.15" y="262.93" width="28.92" height="101.08"/><polygon class="cls-27" points="155.13 274.77 190.43 274.77 228.42 322.53 228.42 373.81 155.13 373.81 155.13 274.77"/><rect class="cls-28" x="390.88" y="263.92" width="25.64" height="98.48"/><rect class="cls-2" x="324.3" y="263.92" width="66.58" height="98.48"/><rect class="cls-29" x="400.46" y="285.57" width="7.67" height="43.9"/><rect class="cls-30" x="390.88" y="344.31" width="25.64" height="13.47"/><rect class="cls-31" x="331.15" y="344.31" width="59.73" height="13.47"/><rect class="cls-28" x="359.26" y="263.92" width="25.64" height="98.48"/><rect class="cls-2" x="292.67" y="263.92" width="66.58" height="98.48"/><rect class="cls-29" x="368.84" y="285.57" width="7.67" height="43.9"/><rect class="cls-30" x="359.26" y="344.31" width="25.64" height="13.47"/><rect class="cls-31" x="292.66" y="344.31" width="66.61" height="13.47"/><polygon class="cls-32" points="297.8 274.77 335.78 322.53 335.78 373.81 262.5 373.81 262.5 274.77 297.8 274.77"/><polygon class="cls-33" points="297.8 274.77 335.78 322.53 262.5 322.53 262.5 274.77 297.8 274.77"/><polygon class="cls-27" points="255.92 274.77 291.22 274.77 329.21 322.53 329.21 373.81 255.92 373.81 255.92 274.77"/><rect class="cls-34" x="247.25" y="280.46" width="70.41" height="83.55"/><rect class="cls-34" x="230.16" y="280.46" width="70.41" height="83.55"/><polygon class="cls-32" points="255.43 274.77 293.42 322.53 293.42 373.81 220.13 373.81 220.13 274.77 255.43 274.77"/><polygon class="cls-33" points="255.43 274.77 293.42 322.53 220.13 322.53 220.13 274.77 255.43 274.77"/><polygon class="cls-35" points="258.65 278.56 290.89 319.1 278.81 315.81 251.2 278.56 258.65 278.56"/><polygon class="cls-27" points="212.68 274.77 247.99 274.77 285.97 322.53 285.97 373.81 212.68 373.81 212.68 274.77"/><rect class="cls-5" x="201.46" y="262.93" width="70.41" height="101.08"/><rect class="cls-36" x="270.34" y="262.93" width="11.39" height="101.08"/><rect class="cls-5" x="184.59" y="262.93" width="70.41" height="101.08"/><rect class="cls-36" x="253.69" y="262.93" width="11.39" height="101.08"/><rect class="cls-37" x="314.6" y="280.46" width="11.39" height="83.55"/><rect class="cls-37" x="297.95" y="280.46" width="11.39" height="83.55"/><polygon class="cls-32" points="211.32 274.77 249.31 322.53 249.31 373.81 176.02 373.81 176.02 274.77 211.32 274.77"/><polygon class="cls-33" points="211.32 274.77 243.57 315.3 249.31 322.53 176.02 322.53 176.02 274.77 211.32 274.77"/><polygon class="cls-35" points="211.32 274.77 243.57 315.3 231.48 312.01 203.87 274.77 211.32 274.77"/><polygon class="cls-35" points="168.57 274.77 203.87 274.77 241.86 322.53 241.86 373.81 168.57 373.81 168.57 274.77"/><polygon class="cls-32" points="225.39 154.7 260.7 154.7 298.68 202.46 298.68 253.74 225.39 253.74 225.39 154.7"/><polygon class="cls-27" points="217.94 154.7 253.25 154.7 291.23 202.46 291.23 253.74 217.94 253.74 217.94 154.7"/><polygon class="cls-28" points="278.05 143.73 290.8 143.73 286.15 242.77 273.4 242.77 278.05 143.73"/><polygon class="cls-38" points="214.11 143.73 284.51 143.73 279.86 242.77 209.46 242.77 214.11 143.73"/><rect class="cls-28" x="261.4" y="147.24" width="12.75" height="99.04"/><rect class="cls-38" x="197.46" y="147.24" width="70.4" height="99.04"/><rect class="cls-28" x="251.76" y="141.98" width="12.75" height="99.04"/><rect class="cls-38" x="187.82" y="141.98" width="70.4" height="99.04"/><polygon class="cls-32" points="181.28 154.7 216.58 154.7 254.56 202.46 254.56 253.74 181.28 253.74 181.28 154.7"/><polygon class="cls-35" points="173.83 154.7 209.13 154.7 247.11 202.46 247.11 253.74 173.83 253.74 173.83 154.7"/><polygon class="cls-35" points="156.55 274.77 121.24 274.77 83.26 322.53 83.26 373.81 156.55 373.81 156.55 274.77"/><rect class="cls-39" x="331.72" y="437.35" width="78.55" height="55.21"/><rect class="cls-35" x="283.52" y="437.35" width="55.76" height="55.21"/><rect class="cls-35" x="283.53" y="15.18" width="131.13" height="104.89"/><rect class="cls-39" x="331.72" y="82.39" width="83.81" height="37.68"/><rect class="cls-35" x="283.52" y="41.19" width="55.76" height="37.68"/><rect class="cls-39" x="331.72" y="41.19" width="83.81" height="37.68"/><rect class="cls-35" x="283.52" width="55.76" height="37.68"/><rect class="cls-39" x="331.72" width="83.81" height="37.68"/><rect class="cls-40" x="331.72" y="382.13" width="78.55" height="55.21"/><rect class="cls-41" x="283.52" y="382.13" width="55.76" height="55.21"/><rect class="cls-25" x="304.06" y="382.13" width="9.09" height="13.43"/><rect class="cls-42" x="304.06" y="437.35" width="9.09" height="12.26"/><rect class="cls-22" x="328.22" y="512.72" width="84.68" height="90.27"/><rect class="cls-43" x="283.52" y="512.72" width="45.24" height="90.27"/><polygon class="cls-12" points="81.41 509.03 81.41 605.59 154.71 605.59 155.42 605.59 220.49 605.59 220.49 509.03 155.42 509.03 154.71 509.03 81.41 509.03"/><rect class="cls-12" x="154.71" y="574.52" width="65.78" height="31.07"/><rect class="cls-44" x="81.41" y="574.52" width="74.01" height="31.07"/><rect class="cls-12" x="154.71" y="540.57" width="65.78" height="31.07"/><rect class="cls-44" x="81.41" y="540.57" width="74.01" height="31.07"/><rect class="cls-12" x="154.71" y="506.85" width="65.78" height="31.07"/><rect class="cls-44" x="81.41" y="506.85" width="74.01" height="31.07"/><rect class="cls-45" x="159.14" y="528.22" width="12.71" height="6.68"/><rect class="cls-45" x="159.14" y="560.91" width="12.71" height="6.68"/><rect class="cls-45" x="159.14" y="595.97" width="12.71" height="6.68"/><polygon class="cls-46" points="178.99 509.03 178.99 605.59 252.29 605.59 253 605.59 317.19 605.59 317.19 509.03 253 509.03 252.29 509.03 178.99 509.03"/><rect class="cls-47" x="252.29" y="574.52" width="65.78" height="31.07"/><rect class="cls-44" x="178.99" y="574.52" width="74.01" height="31.07"/><rect class="cls-47" x="252.29" y="540.57" width="65.78" height="31.07"/><rect class="cls-44" x="178.99" y="540.57" width="74.01" height="31.07"/><rect class="cls-47" x="252.29" y="506.85" width="65.78" height="31.07"/><rect class="cls-44" x="178.99" y="506.85" width="74.01" height="31.07"/><rect class="cls-29" x="361.19" y="390.9" width="28.27" height="19.72"/><rect class="cls-29" x="256.72" y="560.91" width="10.96" height="6.68"/><rect class="cls-29" x="256.72" y="595.97" width="10.96" height="6.68"/><rect class="cls-29" x="256.72" y="528.22" width="10.96" height="6.68"/><rect class="cls-48" x="277.51" y="593.72" width="14.28" height="14.3"/><rect class="cls-49" x="150.32" y="393.53" width="52.25" height="99.03"/><polygon class="cls-50" points="173.76 393.53 199.05 393.53 199.05 490.37 156.1 490.37 156.1 426.82 173.76 393.53"/><rect class="cls-41" x="84.58" y="393.52" width="73.29" height="99.04"/><rect class="cls-32" x="166.19" y="406.35" width="16.8" height="5.29" rx="2.63"/><rect class="cls-51" x="163.56" y="470.03" width="16.8" height="9.09"/><rect class="cls-40" x="244.96" y="393.52" width="52.25" height="99.04"/><rect class="cls-41" x="179.23" y="393.52" width="73.29" height="99.04"/><rect class="cls-22" x="280.13" y="21.91" width="34.61" height="99.04"/><rect class="cls-41" x="236.6" y="21.91" width="48.54" height="99.04"/><rect class="cls-22" x="238.94" y="21.91" width="34.61" height="99.04"/><rect class="cls-41" x="189.28" y="21.91" width="54.67" height="99.04"/><path class="cls-52" d="M209.72,722.61a15.29,15.29,0,1,1,15.33,15.25,15.3,15.3,0,0,1-15.33-15.25Z" transform="translate(0.04 0)"/><path class="cls-52" d="M107,722.61a15.29,15.29,0,1,1,15.33,15.25A15.3,15.3,0,0,1,107,722.61Z" transform="translate(0.04 0)"/><path class="cls-52" d="M368.51,707.28a15.29,15.29,0,1,1-15.28,15.33A15.29,15.29,0,0,1,368.51,707.28Z" transform="translate(0.04 0)"/><path class="cls-52" d="M250.54,722.61a15.29,15.29,0,1,1,15.33,15.25,15.3,15.3,0,0,1-15.33-15.25Z" transform="translate(0.04 0)"/><rect class="cls-27" x="141.34" y="633.41" width="214.61" height="40.54" rx="3.51"/><rect class="cls-39" x="270.04" y="638.67" width="65.31" height="40.54" rx="3.51"/><path class="cls-53" d="M114.06,644.59H379.17A12.91,12.91,0,0,1,392,657.46v65H101.19v-65A12.91,12.91,0,0,1,114.06,644.59Z" transform="translate(0.04 0)"/><path class="cls-54" d="M379.17,644.55A12.9,12.9,0,0,1,392,657.46v65.88H251.16V657.46a12.91,12.91,0,0,0-12.88-12.87Z" transform="translate(0.04 0)"/><rect class="cls-27" x="225.9" y="695.01" width="5.19" height="7" rx="1.75"/><rect class="cls-27" x="212.69" y="695.01" width="5.19" height="7" rx="1.75"/><rect class="cls-27" x="199.48" y="695.01" width="5.19" height="7" rx="1.75"/><rect class="cls-27" x="186.26" y="695.01" width="5.19" height="7" rx="1.75"/><rect class="cls-27" x="173.05" y="695.01" width="5.19" height="7" rx="1.75"/><rect class="cls-27" x="159.83" y="695.01" width="5.19" height="7" rx="1.75"/><rect class="cls-27" x="146.62" y="695.01" width="5.19" height="7" rx="1.75"/><rect class="cls-27" x="133.41" y="695.01" width="5.19" height="7" rx="1.75"/><rect class="cls-27" x="120.19" y="695.01" width="5.19" height="7" rx="1.75"/><path class="cls-55" d="M291.57,657.46l21,65.88h52.59l-21-65.88a16.3,16.3,0,0,0-1.26-2.91,20,20,0,0,0-4.25-5.22,18,18,0,0,0-11.48-4.74H274.58a18,18,0,0,1,11.47,4.74,20,20,0,0,1,4.25,5.22A16.34,16.34,0,0,1,291.57,657.46Z" transform="translate(0.04 0)"/><path class="cls-56" d="M270.79,658.05H373.14a6.18,6.18,0,0,1,6.16,6.16v59.35H264.65V664.21A6.19,6.19,0,0,1,270.79,658.05Z" transform="translate(0.04 0)"/><path class="cls-57" d="M350.53,663.31v6.75a1.8,1.8,0,0,0,1.78,1.78H374v-6.75a1.8,1.8,0,0,0-1.78-1.78H350.53Z" transform="translate(0.04 0)"/><path class="cls-57" d="M293.65,663.34v6.75a1.8,1.8,0,0,1-1.73,1.75H270.18v-6.75a1.8,1.8,0,0,1,1.78-1.78h14.69Z" transform="translate(0.04 0)"/><rect class="cls-58" x="101.23" y="705" width="149.97" height="17.45"/><rect class="cls-59" x="251.2" y="705" width="140.88" height="18.33"/><rect class="cls-39" x="98.46" y="721.22" width="297.85" height="11.7"/><rect class="cls-27" x="98.45" y="721.22" width="156.06" height="11.7"/><rect class="cls-60" x="157.28" y="658.73" width="34.47" height="29.41" rx="3.45"/><rect class="cls-61" x="343.12" y="682.31" width="30.96" height="17.63" rx="2.63"/><rect class="cls-27" x="310.9" y="673.11" width="22.2" height="17.63" rx="2.63"/><rect class="cls-27" x="281.18" y="682.46" width="12.56" height="11.49" rx="1.75"/><path class="cls-54" d="M114.06,644.59H238.29c7.1,0,17.1,5.79,17.1,12.87l-4.23,8.77a12.91,12.91,0,0,0-12.87-12.88H114.06a12.9,12.9,0,0,0-12.87,12.88v-8.77A12.91,12.91,0,0,1,114.06,644.59Z" transform="translate(0.04 0)"/><path class="cls-53" d="M114.11,644.59h86.66l-10.71,8.76h-76a12.9,12.9,0,0,0-12.87,12.88v-8.77A12.9,12.9,0,0,1,114.11,644.59Z" transform="translate(0.04 0)"/><path class="cls-39" d="M310.87,683.57a2.64,2.64,0,0,1,2.62-2.63h8.18a6.76,6.76,0,0,1,4.39,2l5.24,5.83c1,1.07.58,2-.87,2H313.49a2.63,2.63,0,0,1-2.62-2.63Z" transform="translate(0.04 0)"/><g class="cls-62"><path class="cls-63" d="M365.29,693.64c0,.66-.24,1-.72,1s-.72-.33-.72-1v-4.28a1.26,1.26,0,0,1,.18-.76.77.77,0,0,1,.62-.24h.74c.67,0,1,.21,1,.65s-.32.66-.95.66h-.13Z" transform="translate(0.04 0)"/><path class="cls-63" d="M361.75,690.66v.48c0,.41-.18.62-.55.62H361l-.26-.07-.27-.08h-.26a.74.74,0,0,0-.58.23.9.9,0,0,0-.21.65.94.94,0,0,0,.07.37,1,1,0,0,0,.19.3,1.1,1.1,0,0,0,.28.2.8.8,0,0,0,.34.07,1.2,1.2,0,0,0,.42-.08,3.9,3.9,0,0,0,.35-.19l.31-.18a.62.62,0,0,1,.73.09.65.65,0,0,1,.16.46.77.77,0,0,1-.15.46,1.34,1.34,0,0,1-.42.4,2.58,2.58,0,0,1-1.41.38,2.46,2.46,0,0,1-1-.18,2.1,2.1,0,0,1-.75-.5,2.05,2.05,0,0,1-.48-.75,2.29,2.29,0,0,1-.17-.93,2.64,2.64,0,0,1,.14-.84,2.08,2.08,0,0,1,.4-.65,1.7,1.7,0,0,1,.59-.43,1.88,1.88,0,0,1,.74-.15,2.49,2.49,0,0,1,.61.08l-.1-.75h-1.46a1.13,1.13,0,0,1-.65-.17.6.6,0,0,1-.21-.48c0-.44.3-.66.91-.66h2.11a.64.64,0,0,1,.27.11.5.5,0,0,1,.18.23,1.32,1.32,0,0,1,.1.39Z" transform="translate(0.04 0)"/><path class="cls-63" d="M352.65,690.59a1.46,1.46,0,0,1-.17-.71,1.66,1.66,0,0,1,.14-.66,1.71,1.71,0,0,1,.38-.54,2,2,0,0,1,.6-.36,2.12,2.12,0,0,1,.75-.14,2.29,2.29,0,0,1,.78.14,2.22,2.22,0,0,1,.64.35,2,2,0,0,1,.43.48,1,1,0,0,1,.16.53.6.6,0,0,1-.59.6.64.64,0,0,1-.4-.13l-.35-.31a2.17,2.17,0,0,0-.29-.24.58.58,0,0,0-.36-.1.47.47,0,0,0-.37.14.51.51,0,0,0-.15.39c0,.32.22.54.66.64a1,1,0,0,1,.46.21.56.56,0,0,1,.14.41.67.67,0,0,1-.14.45.85.85,0,0,1-.46.18,1.77,1.77,0,0,0-.67.22.58.58,0,0,0-.23.52.76.76,0,0,0,.22.57.72.72,0,0,0,.53.23.81.81,0,0,0,.31-.06,1,1,0,0,0,.24-.15,1,1,0,0,0,.19-.22,2.48,2.48,0,0,0,.19-.26,2,2,0,0,1,.29-.29.52.52,0,0,1,.34-.1.59.59,0,0,1,.45.18.68.68,0,0,1,.18.49,1.3,1.3,0,0,1-.2.63,2.08,2.08,0,0,1-.57.61,2.28,2.28,0,0,1-1.4.48,2.31,2.31,0,0,1-.9-.16,2.08,2.08,0,0,1-.7-.42,1.94,1.94,0,0,1-.46-.64,2,2,0,0,1-.17-.79,1.72,1.72,0,0,1,1-1.6A1.61,1.61,0,0,1,352.65,690.59Z" transform="translate(0.04 0)"/></g><g class="cls-64"><path class="cls-56" d="M180.57,676.33c0,.8-.28,1.21-.86,1.21s-.87-.41-.87-1.21v-5.14a1.65,1.65,0,0,1,.22-.92.88.88,0,0,1,.75-.28h.85c.81,0,1.21.25,1.21.78s-.38.79-1.14.79h-.16Z" transform="translate(0.04 0)"/><path class="cls-56" d="M176.26,672.8v.57c0,.49-.23.74-.67.74h-.3L175,674l-.32-.09h-.32a.89.89,0,0,0-.69.27,1.11,1.11,0,0,0-.25.78,1.16,1.16,0,0,0,.08.45,1.18,1.18,0,0,0,.23.35.94.94,0,0,0,.34.25.84.84,0,0,0,.41.08,1.24,1.24,0,0,0,.5-.1,2.1,2.1,0,0,0,.42-.22l.37-.22a.79.79,0,0,1,.37-.1.67.67,0,0,1,.5.21.75.75,0,0,1,.2.55,1,1,0,0,1-.18.55,1.67,1.67,0,0,1-.51.48,3,3,0,0,1-.76.34,3.65,3.65,0,0,1-.93.12,3.26,3.26,0,0,1-1.16-.21,3,3,0,0,1-.89-.6,2.72,2.72,0,0,1-.58-.91,3.31,3.31,0,0,1-.2-1.12,2.64,2.64,0,0,1,.64-1.79,2.23,2.23,0,0,1,1.61-.7,2.91,2.91,0,0,1,.72.1l-.11-.9h-1.76a1.24,1.24,0,0,1-.77-.2.72.72,0,0,1-.26-.58c0-.53.36-.79,1.09-.79h2.53a1,1,0,0,1,.34.12.65.65,0,0,1,.21.28,1.53,1.53,0,0,1,.11.47Z" transform="translate(0.04 0)"/><path class="cls-56" d="M165.33,672.72a1.77,1.77,0,0,1-.2-.85,2,2,0,0,1,.17-.8,1.88,1.88,0,0,1,.46-.65,2.25,2.25,0,0,1,.71-.43,2.52,2.52,0,0,1,.9-.17,2.87,2.87,0,0,1,1.71.59,2.4,2.4,0,0,1,.52.58,1.29,1.29,0,0,1,.19.63.63.63,0,0,1-.22.51.69.69,0,0,1-.49.21.71.71,0,0,1-.48-.15l-.42-.38-.35-.29a.82.82,0,0,0-.43-.12.59.59,0,0,0-.45.18.6.6,0,0,0-.17.46c0,.39.26.65.79.77a1.25,1.25,0,0,1,.55.25.66.66,0,0,1,.16.5.73.73,0,0,1-.16.53,1.22,1.22,0,0,1-.55.23,2.12,2.12,0,0,0-.81.25.7.7,0,0,0-.27.63.91.91,0,0,0,.26.68.83.83,0,0,0,.64.28.94.94,0,0,0,.37-.07,1.67,1.67,0,0,0,.28-.18,1.2,1.2,0,0,0,.24-.26c.07-.11.15-.21.22-.31a1.71,1.71,0,0,1,.35-.36.66.66,0,0,1,.41-.12.7.7,0,0,1,.54.22.84.84,0,0,1,.21.59,1.53,1.53,0,0,1-.23.75,2.56,2.56,0,0,1-.69.74,2.75,2.75,0,0,1-1.68.57,2.83,2.83,0,0,1-1.08-.19,2.49,2.49,0,0,1-.84-.51,2.25,2.25,0,0,1-.56-.77,2.29,2.29,0,0,1-.19-1,2.05,2.05,0,0,1,1.24-1.91A2.17,2.17,0,0,1,165.33,672.72Z" transform="translate(0.04 0)"/></g><path class="cls-65" d="M286.54,685.46h0a2.76,2.76,0,1,1-2.77,2.75A2.77,2.77,0,0,1,286.56,685.46Z" transform="translate(0.04 0)"/><polygon class="cls-66" points="76.49 624.84 90.38 624.84 81.62 733.17 68.61 733.17 76.49 624.84"/><polygon class="cls-67" points="62.95 624.84 76.84 624.84 72.46 733.17 62.95 733.17 62.95 624.84"/><rect class="cls-68" x="419.59" y="624.84" width="13.89" height="108.33"/><polygon class="cls-66" points="406.05 624.84 419.93 624.84 425.19 733.17 414.81 733.17 406.05 624.84"/><polygon class="cls-69" points="222.86 624.84 238.5 624.84 232.37 733.17 222.86 733.17 222.86 624.84"/><polygon class="cls-67" points="207.57 624.84 223.21 624.84 223.21 733.17 213.7 733.17 207.57 624.84"/><polygon class="cls-69" points="143.25 616.63 433.48 616.63 433.48 633.61 219.79 633.61 143.25 616.63"/><rect class="cls-67" x="62.95" y="616.63" width="160.26" height="16.98"/><polygon class="cls-70" points="56.81 602.6 439.61 602.6 439.61 619.58 62.95 619.58 56.81 602.6"/><rect class="cls-9" x="56.82" y="602.6" width="166.39" height="16.98"/><polygon class="cls-70" points="210.45 483.41 436.11 483.41 436.11 498.63 216.58 498.63 210.45 483.41"/><rect class="cls-9" x="59.45" y="483.41" width="163.76" height="15.23"/><rect class="cls-70" x="223.07" y="12.13" width="13.47" height="593.17"/><rect class="cls-9" x="209.93" y="12.13" width="13.47" height="593.16"/><rect class="cls-9" x="56.82" y="12.13" width="13.47" height="593.16"/><rect class="cls-70" x="426.14" y="12.13" width="13.47" height="593.17"/><polygon class="cls-70" points="219.21 361.58 436.98 361.58 436.11 377.68 219.21 377.68 219.21 361.58"/><rect class="cls-9" x="59.45" y="361.58" width="163.76" height="16.1"/><rect class="cls-70" x="221.84" y="240.63" width="215.14" height="15.23"/><rect class="cls-9" x="59.45" y="240.63" width="163.76" height="15.23"/><rect class="cls-70" x="221.84" y="119.68" width="215.14" height="15.23"/><rect class="cls-9" x="59.45" y="119.68" width="163.76" height="15.23"/><rect class="cls-29" x="384.14" y="216.57" width="26.02" height="12.97"/><rect class="cls-29" x="326.73" y="216.57" width="26.02" height="12.97"/><rect class="cls-29" x="359.93" y="450.05" width="28.99" height="5.92"/><rect class="cls-29" x="378.34" y="460.6" width="10.58" height="5.92"/><rect class="cls-28" x="392.37" y="460.6" width="6.29" height="5.92"/><rect class="cls-28" x="392.37" y="450.05" width="6.29" height="5.92"/><rect class="cls-71" x="374.34" y="28.8" width="29.7" height="3.23"/><rect class="cls-72" x="289.91" y="105.64" width="19.47" height="3.23"/><rect class="cls-72" x="294.29" y="112.36" width="10.71" height="3.23"/><rect class="cls-72" x="249.3" y="105.64" width="19.47" height="3.23"/><rect class="cls-72" x="253.68" y="112.36" width="10.71" height="3.23"/><rect class="cls-73" x="336.65" y="24.42" width="11.98" height="7.61"/><rect class="cls-73" x="336.65" y="65.32" width="11.98" height="7.61"/><rect class="cls-73" x="336.65" y="106.51" width="11.98" height="7.61"/><rect class="cls-73" x="96.94" y="103.01" width="17.24" height="11.12"/><rect class="cls-71" x="374.34" y="69.7" width="29.7" height="3.23"/><rect class="cls-71" x="374.34" y="110.9" width="29.7" height="3.23"/><rect class="cls-74" x="270.49" y="393.52" width="9.09" height="9.05"/><rect class="cls-75" x="258.51" y="470.03" width="16.8" height="9.09"/><rect class="cls-32" x="267.56" y="406.35" width="16.8" height="5.29" rx="2.63"/><line class="cls-76" x1="371.71" y1="512.72" x2="371.71" y2="602.99"/><rect class="cls-77" x="363.07" y="512.72" width="17.86" height="15.72"/><rect class="cls-75" x="335.03" y="589.41" width="17.86" height="9.05"/><rect class="cls-48" x="277.51" y="506.73" width="14.28" height="78.29"/><polygon class="cls-78" points="366.31 512.72 372.67 512.72 378.26 528.44 371.89 528.44 366.31 512.72"/><polygon class="cls-48" points="277.51 532.12 291.79 525.29 291.79 541.52 277.51 548.34 277.51 532.12"/><g class="cls-62"><path class="cls-14" d="M406.68,633.61l8.06,99.56h18.67V708.26c-.09-.31-.19-.7-.32-1.17h.32v-87.5h6.13V242.05a33.34,33.34,0,0,0-10.2,1.69,6.46,6.46,0,0,0-.69.26,27.86,27.86,0,0,0-14.35,11.86h11.8v79.08a23.18,23.18,0,0,0,2.73.56c2.19.79,3.49,1.59,3.62,3v10.09h-.25a30.26,30.26,0,0,0-5.71,0h-.39v13h-9.62V349.82c-9.8,3.26-15.94,12.54-18.8,23-.46,1.71-.89,3.32-1.29,4.87H426.1V483.33H410.23V437.27H348.8l5.44,6.54a2.32,2.32,0,0,0-3.28,2,1.34,1.34,0,0,0,0,.35c-.07,2.56,1,3.82,1.93,5.4,2.79,4.64,5.88,5.56,11.05,4.51.41.87.8,1.73,1.17,2.57a81.71,81.71,0,0,1,5.75,16.87s19.65-.33,34.65,1.22l-.53,21.84H426.1v104H412.86V512.69H396c-.77,26.17-2.65,89.92-2.65,89.92h15.86s-.42,25.26-.57,31Z" transform="translate(0.04 0)"/><path class="cls-14" d="M373.4,726.9a2.54,2.54,0,0,1,0,.39h0a14.94,14.94,0,0,0,.23,2c.08.32.16.61.24.9v.13l.12.29v.16a1.59,1.59,0,0,1,.15.29v.13a2.77,2.77,0,0,0,.26.48l.11.19a1.28,1.28,0,0,0,.11.2,1.84,1.84,0,0,0,.17.22l.11.15a2.14,2.14,0,0,0,.28.32h0a7.74,7.74,0,0,0,1.15,3,15.3,15.3,0,0,0,3.47-2.84h16.47v-11.7H392V719c-1.49,1.53-2.57,2.61-2.57,2.61a53.51,53.51,0,0,1-8.29.52C377.2,722,373.36,723.46,373.4,726.9Z" transform="translate(0.04 0)"/><path class="cls-14" d="M410.23,382.18h-15c-1.88,7.73-3.05,13.38-3.88,17.81l-2.43,13,4.9.94-.29,2.47a4.77,4.77,0,0,0-.61-.66,6.53,6.53,0,0,0-2.88-1.58,5.81,5.81,0,0,1,.72-.05H390a4.82,4.82,0,0,0-1-.14H344.8c-3.31,0-5.48,2.46-4.78,5.46h-.9c-.6,0-1,.23-1,.58l-.86,2.61c-.18.27-.12.66.25,1.1l11.33,13.63h61.39Z" transform="translate(0.04 0)"/></g><path class="cls-79" d="M502.79,685.09c1.07-.81-4.77,2.59-7.07,2.81s-18.31,1.47-18.65,2.58,1.54,25.24,2.56,26.11,25.4,2.62,27.25-6.32c.09-.47,1.34-1.61.63-3.86S502.34,685.43,502.79,685.09Z" transform="translate(0.04 0)"/><path class="cls-80" d="M510.26,733c0,.23-18.31-.51-18.31-.51s-21.49,4.93-25.56,4.82-13.73-.31-18.62-.45-3.64-12.9-3.64-12.9l15.92-.29s7.72-8,10.72-12.08c1.06-1.5,2.06-7.79,2.06-7.79l13.84.82s4.68,10,13.23,10.24c8.94.27,8-4.73,8-4.73S510.28,715.69,510.26,733Z" transform="translate(0.04 0)"/><polygon class="cls-80" points="510.93 729.63 495.02 729.48 482.7 732.2 482.83 736.4 510.6 736.37 510.93 729.63"/><path class="cls-81" d="M442.25,726c.09-3.7,4.24-5.27,8.55-5.17a57.66,57.66,0,0,0,9-.58s6.42-6.34,9.82-10.6a8.29,8.29,0,0,0,1.86-3.93h0q.06-.29.15-.57v-.11a3.18,3.18,0,0,1,.14-.61v-.08a3.12,3.12,0,0,0,.11-.53.11.11,0,0,0,0-.11,2.62,2.62,0,0,0,.12-.54.38.38,0,0,0,0-.15,4,4,0,0,0,.11-.5h0c.22-1.19.35-2.08.35-2.08l3,.09,8,.23,3.31.11A6.94,6.94,0,0,0,487,702c.67,2.63,3.11,9.25,9.94,10.14,9.77,1.27,10.63-5.31,10.63-5.31s2.19,3.9,2.9,15.44V723c.1,2,.17,4.19.17,6.6-.07.22-19.07-.46-19.07-.46s-3.4.75-7.8,1.65-9.81,2-13.87,2.6a6.49,6.49,0,0,1-.77.11H469a4.93,4.93,0,0,0-.67.11h-.18a1.19,1.19,0,0,1-.56.1h-.25c-.18,0-.32.06-.5.06H466a1.61,1.61,0,0,1-.31,0h-.5a1.55,1.55,0,0,1-.43,0h-1.42l-8.43-.24-8.36-.24a1.55,1.55,0,0,1-.43,0h-.15l-.32-.09-.11-.06a.83.83,0,0,1-.4-.19H445l-.3-.2-.15-.1-.22-.24-.11-.1a2.43,2.43,0,0,1-.3-.34c0-.07-.12-.1-.12-.17l-.19-.24-.12-.21-.12-.2a5.12,5.12,0,0,1-.27-.52v-.14a1.3,1.3,0,0,0-.16-.31V730l-.12-.31v-.14c-.09-.34-.18-.65-.27-1a16.79,16.79,0,0,1-.25-2.12h0A1.31,1.31,0,0,0,442.25,726Z" transform="translate(0.04 0)"/><path class="cls-79" d="M472.5,700.1l15.39.38c.67,2.66,2.43,9.11,9.26,10,9.77,1.29,10.55-3.71,10.55-3.71s2.19,3.9,2.9,15.44l-10.51,2.51s-3.58-11.36-11.5-13.79-17.14-4.38-17.14-4.38Z" transform="translate(0.04 0)"/><path class="cls-82" d="M479.05,486.82c.57-20.24,2-33.73,2-33.73l42.19-3.24,2.32,16c1.25-1.06-2.5,2.88-2.75,7.12-3.4,60.18-12.08,231.67-12.08,231.67H476.28C475.27,704.64,477,555.14,479.05,486.82Z" transform="translate(0.04 0)"/><path class="cls-79" d="M554.93,685.09c1.07-.81-4.77,2.59-7.07,2.81s-18.3,1.47-18.64,2.58,1.53,25.24,2.55,26.11,25.4,2.62,27.25-6.32c.1-.47,1.34-1.61.63-3.86S554.46,685.43,554.93,685.09Z" transform="translate(0.04 0)"/><path class="cls-80" d="M562.39,733c0,.23-18.32-.51-18.32-.51s-21.49,4.93-25.56,4.82-13.73-.31-18.62-.45-3.64-12.9-3.64-12.9l15.92-.29s7.72-8,10.72-12.08c1.06-1.5,2.06-7.79,2.06-7.79l13.84.82s4.68,10,13.23,10.24c8.94.27,8-4.73,8-4.73S562.4,715.69,562.39,733Z" transform="translate(0.04 0)"/><polygon class="cls-80" points="563.05 729.63 547.15 729.48 534.82 732.2 534.95 736.4 562.72 736.37 563.05 729.63"/><path class="cls-83" d="M494.53,726c.09-3.7,4.23-5.27,8.54-5.17a57.66,57.66,0,0,0,9-.58s6.42-6.34,9.82-10.6c0,0,1.78-2.08,1.86-3.93h0q.06-.29.15-.57a.11.11,0,0,1,0-.11,3.2,3.2,0,0,1,.15-.61v-.08a4.54,4.54,0,0,0,.12-.53.21.21,0,0,0,0-.11,3.45,3.45,0,0,0,.11-.54.38.38,0,0,0,0-.15,4,4,0,0,0,.11-.5h0c.22-1.19.36-2.08.36-2.08l3,.09,8,.23,3.31.11a6.94,6.94,0,0,0,.27,1.09c.67,2.63,3.11,9.25,9.94,10.14,9.77,1.27,10.63-5.31,10.63-5.31s2.2,3.9,2.9,15.44V723q.16,3,.17,6.6c-.07.22-19.07-.46-19.07-.46s-3.4.75-7.8,1.65-9.86,2-13.86,2.6a7,7,0,0,1-.78.11h-.14a4.93,4.93,0,0,0-.67.11h-.34a1.19,1.19,0,0,1-.56.1h-.25c-.18,0-.32.06-.49.06h-.92a1.71,1.71,0,0,1-.32,0h-.5a1.48,1.48,0,0,1-.42,0h-1.43l-8.43-.24-8.36-.24a1.55,1.55,0,0,1-.43,0h-.14l-.33-.09-.11-.06a.83.83,0,0,1-.4-.19h-.07l-.3-.2a.63.63,0,0,0-.14-.1,1.75,1.75,0,0,1-.23-.24l-.11-.1a2.43,2.43,0,0,1-.3-.34c0-.07-.12-.1-.12-.17l-.19-.24-.12-.21a1.28,1.28,0,0,0-.11-.2,3.74,3.74,0,0,1-.28-.52v-.14a.92.92,0,0,0-.16-.31V730l-.13-.31v-.14l-.26-1a15.15,15.15,0,0,1-.26-2.12h0A1.64,1.64,0,0,0,494.53,726Z" transform="translate(0.04 0)"/><path class="cls-79" d="M524.65,700.09l15.36.38c.67,2.66,2.43,9.11,9.26,10,9.77,1.29,10.55-3.71,10.55-3.71s2.2,3.9,2.9,15.44c0,0-11.14-7.35-18.68-10s-20.47-5.65-20.47-5.65Z" transform="translate(0.04 0)"/><path class="cls-84" d="M562.3,704.65l1-231.67s-2.61-8.19-3.79-7.12l-3.22-16-41.58,3.84s6.5,250.94,7.82,250.94Z" transform="translate(0.04 0)"/><path class="cls-85" d="M444.26,414.54,464,430.27c2.33,1.85,4.51,1,4.85-2L477.37,355" transform="translate(0.04 0)"/><path class="cls-86" d="M461.87,372.61c1.21-6.53,3.05-15.49,6.82-29.33,2.26-8.31,6.44-15.93,12.7-20.78l.07-.05c.35-.23.67-.48,1-.7h.05a25.43,25.43,0,0,1,14.58-4.56h.35c6.58,0,7.49,2.36,6.76,4.72a14.45,14.45,0,0,1-3.12,4.71l-3.49,13.89c-2.21,8.72-5.67,23.75-8.21,37.39L486.74,392l-8.42-1.62-19.05-3.65Z" transform="translate(0.04 0)"/><polygon class="cls-87" points="498.54 393.9 480.58 343.77 471.29 389.03 498.54 393.9"/><path class="cls-84" d="M476.14,495.8c0,9.53,8.74,10.88,18.16,12.29l49.79,15.29c9.4,1.41,16.59,7.65,17-1.87L558.16,487l-80.88-37.54Z" transform="translate(0.04 0)"/><path class="cls-86" d="M480.65,467.22c.21.45.39.78.39.78A.93.93,0,0,1,480.65,467.22Z" transform="translate(0.04 0)"/><path class="cls-86" d="M488.08,320.34a19.49,19.49,0,0,1,9-3.14,10.58,10.58,0,0,1,1.7-.09H538c12.71-.11,25.08,10.94,25.08,24.48V493.81s-15.62-29.35-54.71-29.66c-24-.18-27.58,1.91-27.72,3.1a5.57,5.57,0,0,1-.64-1.89c-.17-4.87-1-42.59-1.69-75l-1-48.06C477.31,333.09,481.42,324.7,488.08,320.34Z" transform="translate(0.04 0)"/><polygon class="cls-87" points="525.59 371.15 526.92 407.52 554.15 417.94 559.96 404.42 565.99 392.44 544.88 349.86 543.91 349.86 540.3 350.75 525.59 371.15"/><path class="cls-84" d="M477.87,406.65c.09-2.18.09-3.33.09-3.33,4.6,0,5.1,9.45,5.1-39.84h48.25c0,3.27-.07.21.07,7.27.31,14.84,1.54,32.89,6.54,32.89,1,0,16.24,1.49,17.39,1.49,6.68,0,6.68-7.7,6.68-7.7l-10.2-1.63,3-3.83,7.94-3.48s1.42,75.25.57,102.33v1.88c-.06,1.35-.1,2.55-.18,3.55-1,15.31-57.62-12.75-78.15-23.44-4.55-2.37-7.32-3.88-7.32-3.88C477.22,438,477.65,414.91,477.87,406.65Z" transform="translate(0.04 0)"/><path class="cls-82" d="M477.86,414.65l46.26,7.79,7.25-51.69c.31,14.84,1.54,32.89,6.54,32.89,1,0,4.77,1.49,5.92,1.49,6.69,0,6.69-7.7,6.69-7.7l1.26-1.63c-.92,5.76-1.92,11.53-1.92,11.53-1.6,9.68-1.6,40.83-19.6,49.83-12.41,6.19-53.61,18.19-53.61,18.19C477.65,442.09,477.65,422.91,477.86,414.65Z" transform="translate(0.04 0)"/><path class="cls-88" d="M532.14,256.64c-1.77.67-4,12.39-4.21,14.38s4.89,10.51,11.06,10.51c7.53,0,12.28-5.2,13.66-24.44C552.65,257.09,533.91,256,532.14,256.64Z" transform="translate(0.04 0)"/><path class="cls-88" d="M486.43,260.41s-6-21.65,1.44-38.5c4-9.09,8.57-15.95,26.33-16.09,31.92-.24,40.59,15.6,39.76,30.53-.42,7.52-.55,7.65-1.49,23.12-1.11,18.14-15.14,5.94-15.45,22.33,0,.93-.78-6.87-2-4.42Z" transform="translate(0.04 0)"/><path class="cls-89" d="M506.26,285.5,533,287v31.28a25.23,25.23,0,0,1-16.66,6.31c-10.24,0-10-6.31-10-6.31Z" transform="translate(0.04 0)"/><path class="cls-90" d="M506.29,280.49l26.69-.18s-.18,20.4-.18,25-19.51,7.1-26.51,6.25Z" transform="translate(0.04 0)"/><path class="cls-90" d="M481.89,246.73c0-16.43,12.78-27.26,28.66-27.38s26.79,11.69,26.79,28.13l6.3,19.7c0,15.05-10.11,37.05-30.57,37.05-1.76,0-6.76,4.65-6.76,2.25,0-2.21-2.42-3.08-6.52-4.33-4.5-1.36-6.46-5.47-7.88-7.28-3.32-4.23-8.68-18.4-8.68-24.55Z" transform="translate(0.04 0)"/><path class="cls-89" d="M481.52,242c.6-14.5,7.41-25.76,26.6-25.76,15.36,0,24,7.84,24.48,29.24v1.77l1,14.26c.56,16.4-5,41.68-25.93,41.84s-24.81-15.76-25.42-33l-.44-14-.12-3.72-.21-6.52A40.14,40.14,0,0,1,481.52,242Z" transform="translate(0.04 0)"/><path class="cls-90" d="M505.87,270.83c-.05-.63-.65-1.37-2.55-.8a10.45,10.45,0,0,1-6.76,0c-1.17-.55-1.84.2-1.84.83-.14,1.71,2.38,3.39,5.38,3.39S506,272.54,505.87,270.83Z" transform="translate(0.04 0)"/><path class="cls-90" d="M542.63,249.67c4.18.75,6.61,5.53,6.18,11.65s-4.2,10.8-8.52,10.43-7.44-5.63-7-11.76S538.45,248.92,542.63,249.67Z" transform="translate(0.04 0)"/><path class="cls-91" d="M515.19,258.59a2.61,2.61,0,0,0-2.66-2.56,2.68,2.68,0,0,0-2.66,2.65v0a2.62,2.62,0,0,0,2.66,2.58,2.68,2.68,0,0,0,2.66-2.66Z" transform="translate(0.04 0)"/><path class="cls-91" d="M491.73,259.05a2.62,2.62,0,0,0-2.66-2.58,2.67,2.67,0,0,0-2.66,2.66v0a2.62,2.62,0,0,0,2.66,2.58,2.68,2.68,0,0,0,2.66-2.65Z" transform="translate(0.04 0)"/><path class="cls-88" d="M535.79,248.16" transform="translate(0.04 0)"/><path class="cls-88" d="M525.83,246.24" transform="translate(0.04 0)"/><line class="cls-92" x1="507.89" y1="247.58" x2="519.84" y2="247.82"/><line class="cls-92" x1="482.76" y1="248.77" x2="493.05" y2="248.02"/><path class="cls-88" d="M541.51,249.38c-3.94,1.85-4.87,5.31-4.87,11.51,0,0,0,2.23-3.51,2a153.16,153.16,0,0,1-2.6-25.54c0-10.78-5.94-11.88-10.26-12.21-11-.85-10.73,7.85-25.55,7.85-3.54,0-7.52-2.77-9.31-7l-.1.11c0-.06.07-.11.07-.17-2-4.79,3.32-9.29,14.91-16,16.92-9.79,31.26.87,32.37,1.76.67.53-.47,6.35-3.6,10.24A30,30,0,0,1,539.73,245Z" transform="translate(0.04 0)"/><path class="cls-93" d="M510.31,284.48c-1.7,1.22-5.42,1.42-7.7,1.42s-4.91-.2-6.64-1.42" transform="translate(0.04 0)"/><path class="cls-94" d="M496.42,513.51v0Z" transform="translate(0.04 0)"/><path class="cls-94" d="M496.46,512.29Z" transform="translate(0.04 0)"/><path class="cls-94" d="M496.44,511Z" transform="translate(0.04 0)"/><path class="cls-94" d="M496,517.55a2.74,2.74,0,0,0-.05.28A2.74,2.74,0,0,1,496,517.55Z" transform="translate(0.04 0)"/><path class="cls-94" d="M496.19,516.19v0Z" transform="translate(0.04 0)"/><path class="cls-94" d="M496.33,514.89a.67.67,0,0,0,0,.2A.67.67,0,0,1,496.33,514.89Z" transform="translate(0.04 0)"/><path class="cls-95" d="M487.65,422.21l44.73,10.14a6.18,6.18,0,0,0,.62.12,6.63,6.63,0,0,0,7.49-5.64L550.58,361" transform="translate(0.04 0)"/><polygon class="cls-96" points="554.17 396.91 552.7 406.55 536.03 396.53 536.54 393.59 554.17 396.91"/><path class="cls-86" d="M540.28,349.65l-5.63,44L566.39,400s5.89-36.66,6.16-51c.27-14.57-6-31.91-35.19-31.91Z" transform="translate(0.04 0)"/><path class="cls-84" d="M544.16,317.4c2.43.35,5.89,1,5.89,1-15.49-.83-18.95,31.36-18.76,46l-5.49.25-4.8-.25c-.15-14.64,3.09-47.31,17-47.31A57.62,57.62,0,0,1,544.16,317.4Z" transform="translate(0.04 0)"/><path class="cls-84" d="M483,365.32l4.13-.46,6,.46c-.16-12.71,2.44-42.11,13.26-46.11a4.22,4.22,0,0,1-.13-1v-1.12H506a33.57,33.57,0,0,0-6.18,0C485.93,317.09,482.88,350.72,483,365.32Z" transform="translate(0.04 0)"/><path class="cls-89" d="M494.61,421.34a51.79,51.79,0,0,1-6.42-2.22c-.68-.44-7.13-1.48-8.63-2.66s-2.34-.3-3-.89a12.09,12.09,0,0,1-2.16-3.26c-.15-.6-4-3.59-3.4-5.6s14.39-3.75,16.84-1.42,8,8.8,12.45,11.17C500.29,416.46,495.41,421.49,494.61,421.34Z" transform="translate(0.04 0)"/><path class="cls-87" d="M497.13,317.18a10.58,10.58,0,0,1,1.7-.09h7.51v1.16a5.65,5.65,0,0,0,3,4.77c-1.48-.35-3.23-.73-5.14-1.11-5.12-1-11.34-1.9-16.12-1.57a12.44,12.44,0,0,0-5.57,1.42A25.48,25.48,0,0,1,497.13,317.18Z" transform="translate(0.04 0)"/><path class="cls-97" d="M451.39,392.91s7.74,15.68,7.66,15.42,9.71,6.38,9.71,6.38l-13-7.15c1-3.32,14.05-12.18,7.83-17.88-3.06-2.81-7.38-2.41-8.6.85Z" transform="translate(0.04 0)"/><path class="cls-98" d="M406.36,397.77l-.17-.68,42.71,51.3a4.94,4.94,0,0,0,3.35,1.58h54.21l3,2.5,1-2.94c.16-.28.07-.69-.3-1.14L466,395.28a4.92,4.92,0,0,0-3.35-1.57H405.43c-.67,0-1,.25-1.1.62l-.93,2.85Z" transform="translate(0.04 0)"/><polygon class="cls-99" points="454.51 393.7 453.84 396.77 458.4 396.77 460.1 393.7 454.51 393.7"/><path class="cls-100" d="M403.67,398.34c-.72-.86-.39-1.57.73-1.57h57.22a5,5,0,0,1,3.35,1.57l44.17,53.12c.71.86.38,1.57-.74,1.57H451.19a5,5,0,0,1-3.35-1.57Z" transform="translate(0.04 0)"/><path class="cls-97" d="M413.77,389.78l47.44-1.87c-3.76,0-5.6,2.9-4.6,6.22s3.26,4.81,6,8.08c29,34.59,30.07,53.83,30.07,53.83-15.84-3.06-46.25-2.55-46.25-2.55-1.53-8.69-14.82-28.87-30.23-49.4-2.32-3-5.95-5.92-7.32-8.26a7.29,7.29,0,0,1-.76-1.74C407.16,390.69,410.15,389.8,413.77,389.78Z" transform="translate(0.04 0)"/><path class="cls-13" d="M412,389.68l46.86-1.86c-3.34.29-4.87,3.13-4,6.2,1,3.32,3.26,4.82,6,8.09,29,34.58,25,54.85,25,54.85-15.84-3.07-46.25-2.56-46.25-2.56-.69-3.92-2.74-10.41-6.21-18.24-1.62-3.65-3.54-7.59-5.79-11.71A167.19,167.19,0,0,0,414.54,404c-2.33-3.06-6-5.93-7.33-8.27a7.44,7.44,0,0,1-.75-1.74C405.5,390.56,408.48,389.68,412,389.68Z" transform="translate(0.04 0)"/><path class="cls-97" d="M430.28,423.57c2.14-1.19,4.34-2.56,4.26-.77a18.21,18.21,0,0,1-.76,3.93s3.91,6.38.84,8.68a6.93,6.93,0,0,1-1.18.75c-1.62-3.65-3.54-7.59-5.79-11.71Z" transform="translate(0.04 0)"/><path class="cls-101" d="M432,422.46c-4.24,1.11-9.37,1-11.24,0" transform="translate(0.04 0)"/><path class="cls-102" d="M418.14,422.73c0,2.77,1.08,4.13,2.08,5.83,3.07,5.11,6.48,6.05,12.27,4.81,5.23-1.11.37-8.63-1-10.34s-6-1.16-8.52-.94S418.19,420.84,418.14,422.73Z" transform="translate(0.04 0)"/><path class="cls-103" d="M411.59,387.76h48c-3.76,0-5.52,3-4.6,6.22-1.92.12-45.15.25-48.53,0C405.5,390.56,407.89,387.8,411.59,387.76Z" transform="translate(0.04 0)"/><path class="cls-84" d="M476.34,487.09l32.48,25.57L495.19,704.28l-7,.36H471C470,704.64,474.31,555.37,476.34,487.09Z" transform="translate(0.04 0)"/><polygon class="cls-82" points="516.16 515.02 501.52 509.11 510.97 526.12 516.16 515.02"/><path class="cls-87" d="M481.47,246.09l.09,2.74.12,3.78.12-.07c16.68,3.94,33.23-5.25,36.44-8.89,7.24,1.15,12.74,2.28,13,5.43-1.2-22.19-7.79-32.87-23.15-32.87-20,0-26.59,12.27-26.64,27.68v.2C481.45,244.76,481.45,245.43,481.47,246.09Z" transform="translate(0.04 0)"/><g class="cls-104"><path class="cls-105" d="M492,377.09v9.21a9.35,9.35,0,0,0,9.45,9.21h9.92a9.36,9.36,0,0,0,9.44-9.21v-9.21" transform="translate(0.04 0)"/></g><path class="cls-106" d="M551.13,253.21c-.11-.13-12.78-13.05-48-13.05-19.06,0-20.66,3.18-20.66,3.18-1.3,1.66-1.07,4.85-.83,6.26.14.83-3-3.42-1.42-8.5s6.46-6.61,22.91-6.61c37.63,0,51.55,14.21,52.13,14.81a2.88,2.88,0,0,1,.78,1.95,2.84,2.84,0,0,1-2.84,2.84A2.8,2.8,0,0,1,551.13,253.21Z" transform="translate(0.04 0)"/><path class="cls-107" d="M481.84,219.28a33.06,33.06,0,0,1,19-18c.26-.12.53-.2.8-.3A39.43,39.43,0,0,1,515,199c.82,0,1.63.07,2.48.07h.38c2.26.16,4.38.39,6.43.7,0,0,.12.05.19.05,1,.16,2,.35,3,.56a49.68,49.68,0,0,1,5.07,1.32c14.23,4.41,22.31,13.75,25.13,24.41a35.76,35.76,0,0,1,1.14,8.86v1.24c0,1.9-.15,4-.31,6.09-.5,6.31-1.46,12.38-2.31,11.76-2.85-4.85-11.07-10.41-22-13.71a133.32,133.32,0,0,0-37.36-5.19c-3.07,0-5.49-.07-7.49-.14-1.47,0-2.71-.1-3.71-.1-2.8,0-4.17.19-5.52,1.19C478.32,236,478,227.84,481.84,219.28Z" transform="translate(0.04 0)"/><path class="cls-108" d="M488.37,219.22a33.18,33.18,0,0,1,19-18c.26-.12.54-.2.81-.3a37.62,37.62,0,0,1,9.73-1.9c2.26.16,4.38.39,6.43.7,0,0,.12.05.19.05,1,.16,2,.35,3,.56a35.64,35.64,0,0,0-14.73,16.6c-4.1,9.2-3.77,17.85-1.88,18l-7.62.22c-7.84,0-11.57-.45-13.94-.14a5.53,5.53,0,0,0-2.78,1.09c-.39,0-.71-.45-.93-1.19C484.84,232.33,485.31,225.93,488.37,219.22Z" transform="translate(0.04 0)"/><path class="cls-107" d="M483.9,236.13c2.51-2,5.12-1,16.72-1l7.61-.21c-1.88-.15-2.32-9.29,1.78-18.51,2.86-6.48,9.29-15.67,16.35-16.94-1.64-.21-3.33-.39-5.1-.5-.84-.08-1.66-.08-2.48-.08a39.43,39.43,0,0,0-13.33,2c-.27.09-.54.19-.8.3a33.06,33.06,0,0,0-19,18C481.79,227.84,482.1,236,483.9,236.13Z" transform="translate(0.04 0)"/><path class="cls-109" d="M526.63,234.38c-28.44-7-38.08-5.47-38-7.2.23-4.32,3.84-20.75,12.23-25.93a33.06,33.06,0,0,0-19,18c-3.85,8.65-3.53,16.77-1.77,16.92,2.51-2,5.12-1,16.72-1a133.37,133.37,0,0,1,37.36,5.19c10.93,3.3,20.16,9.34,22.57,14.73C561.47,248.3,549.3,239.88,526.63,234.38Z" transform="translate(0.04 0)"/><path class="cls-86" d="M461.39,228.42c.93-1.18,6-2,18.31-2q2.81,0,5.43.06a145.76,145.76,0,0,1,30.23,3.5c10.41,2.47,14.57,5.34,14.57,5.34l-.56,3.78s-6.58-1.81-14-3.36a85,85,0,0,0-15.82-2.24,67.64,67.64,0,0,0-14.41,1.25,13.11,13.11,0,0,0-4.49,1.59c-4.64-1.25-19.32-4.57-19.32-4.57S461,229,461.39,228.42Z" transform="translate(0.04 0)"/><path class="cls-110" d="M515.41,230v5.76a85,85,0,0,0-15.82-2.24,67.64,67.64,0,0,0-14.41,1.25v-8.27A145.76,145.76,0,0,1,515.41,230Z" transform="translate(0.04 0)"/><path class="cls-111" d="M480.69,239.17s3.78-2.83,18.9-2.83a187.93,187.93,0,0,1,30.23,2.83s-12.75-9.92-50.07-9.92S471.72,236.81,480.69,239.17Z" transform="translate(0.04 0)"/><rect class="cls-82" x="492.08" y="373.31" width="28.81" height="5.74"/><rect class="cls-112" x="520.18" y="351.94" width="12.28" height="9.52" rx="1.89"/><rect class="cls-112" x="481.92" y="351.94" width="12.28" height="9.52" rx="1.89"/><rect class="cls-84" x="521.12" y="354.52" width="7.56" height="3.42" rx="1.28"/><rect class="cls-84" x="482.98" y="354.52" width="7.56" height="3.42" rx="1.28"/><polygon class="cls-113" points="439.61 69.1 439.61 105 426.14 103.43 426.14 67.53 439.61 69.1"/><polygon class="cls-113" points="236.54 45.54 236.54 81.44 223.07 79.88 223.07 43.98 236.54 45.54"/><polygon class="cls-113" points="439.61 51.47 439.61 64.69 426.14 63.12 426.14 49.9 439.61 51.47"/><polygon class="cls-113" points="236.54 27.91 236.54 41.13 223.07 39.57 223.07 26.35 236.54 27.91"/></g></svg>