<?xml version="1.0" standalone="no"?>
<!DOCTYPE svg PUBLIC "-//W3C//DTD SVG 20010904//EN"
 "http://www.w3.org/TR/2001/REC-SVG-20010904/DTD/svg10.dtd">
<svg version="1.0" xmlns="http://www.w3.org/2000/svg"
 width="470.000000pt" height="470.000000pt" viewBox="0 0 470.000000 470.000000"
 preserveAspectRatio="xMidYMid meet">
<metadata>
Created by potrace 1.11, written by Peter Selinger 2001-2013
</metadata>
<g transform="translate(0.000000,470.000000) scale(0.100000,-0.100000)"
fill="#000000" stroke="none">
<path d="M1729 4325 c-5 -4 -1448 -420 -1574 -453 -33 -9 -62 -17 -64 -19 -2
-1 59 -95 135 -208 76 -113 185 -274 242 -358 67 -99 112 -157 131 -166 26
-12 40 -10 137 17 60 17 276 78 479 136 204 57 501 141 660 186 160 45 340 96
400 114 l110 32 340 -97 c187 -54 356 -103 375 -108 50 -16 482 -140 560 -162
36 -10 103 -29 150 -43 199 -58 235 -67 254 -61 26 7 520 693 524 727 2 20 -3
28 -25 36 -24 9 -94 30 -128 38 -5 1 -46 12 -90 23 -44 12 -87 23 -95 25 -53
14 -271 70 -350 91 -191 51 -450 119 -530 139 -8 2 -87 23 -175 46 -88 23
-167 43 -175 45 -8 2 -15 4 -15 5 0 1 -7 3 -16 5 -9 1 -25 5 -35 9 -33 10 -60
-16 -200 -189 -165 -204 -217 -268 -224 -275 -3 -3 -21 -25 -40 -50 -36 -46
-50 -63 -92 -114 -21 -25 -26 -27 -39 -14 -12 12 -64 70 -207 227 -13 14 -40
44 -60 66 -21 22 -57 63 -82 91 -218 242 -260 281 -281 259z"/>
<path d="M2335 3532 c-22 -4 -147 -41 -540 -158 -137 -41 -257 -77 -265 -79
-51 -14 -126 -36 -200 -59 -47 -14 -133 -40 -193 -57 -59 -18 -106 -34 -104
-36 2 -1 98 18 213 43 115 25 229 49 254 54 25 5 142 30 260 55 118 26 226 48
240 51 14 2 57 11 95 20 110 25 118 26 147 27 59 1 74 -31 83 -179 4 -60 8
-125 10 -144 3 -29 15 -197 19 -277 1 -12 5 -26 10 -30 4 -4 6 -3 5 2 -3 9 9
143 16 190 5 31 14 104 20 170 4 33 8 71 10 85 2 14 6 50 10 80 8 76 22 106
53 119 33 13 50 10 357 -65 33 -8 71 -17 85 -20 14 -3 41 -9 60 -14 19 -5 64
-15 100 -23 36 -9 144 -34 240 -57 96 -23 185 -44 197 -46 12 -2 34 -9 48 -14
16 -6 24 -6 20 0 -3 5 -20 13 -38 19 -59 17 -201 59 -387 116 -102 31 -228 69
-280 85 -52 16 -133 40 -180 55 -47 14 -94 29 -105 32 -11 2 -54 15 -95 28
-82 25 -134 34 -165 27z"/>
<path d="M3875 3071 c-88 -26 -452 -132 -810 -236 -357 -103 -652 -189 -654
-191 -2 -2 28 -50 67 -106 40 -57 96 -139 126 -183 228 -332 323 -460 349
-469 35 -13 59 -6 642 174 253 78 467 143 475 145 8 2 132 40 276 83 143 44
279 85 302 92 23 6 42 15 42 21 0 5 -13 24 -29 42 -37 41 -353 406 -485 559
-69 81 -107 118 -121 117 -11 0 -92 -22 -180 -48z"/>
<path d="M585 3082 c-9 -6 -40 -43 -127 -147 -9 -11 -76 -92 -148 -180 -177
-215 -203 -247 -215 -260 -47 -51 -94 -115 -88 -118 7 -5 327 -99 943 -278
113 -33 219 -64 235 -70 33 -10 298 -88 330 -96 11 -3 55 -16 98 -29 94 -29
127 -30 158 -5 14 10 87 110 164 220 77 111 184 264 237 341 53 77 101 148
107 158 10 20 -8 25 -569 178 -47 12 -168 46 -270 74 -213 59 -304 84 -485
133 -71 20 -172 47 -223 61 -97 27 -130 31 -147 18z"/>
<path d="M2219 2352 c-52 -75 -147 -211 -210 -301 -63 -91 -132 -184 -155
-209 -70 -77 -95 -73 -639 99 -16 5 -118 36 -225 68 -166 50 -228 69 -362 107
-15 4 -16 -38 -17 -555 0 -517 1 -560 17 -566 33 -13 1058 -398 1112 -418 30
-11 172 -64 314 -118 143 -54 262 -96 265 -94 6 7 7 2125 1 2125 -3 0 -48 -62
-101 -138z"/>
<path d="M2405 1427 c0 -1005 1 -1062 18 -1059 10 2 185 66 390 143 204 77
469 176 587 220 118 44 222 82 230 86 8 3 17 7 20 8 3 1 12 5 20 8 8 4 40 16
70 26 50 18 127 47 311 117 l66 25 0 559 c0 308 -2 560 -5 560 -4 0 -184 -54
-737 -222 -459 -139 -411 -127 -447 -109 -18 9 -54 47 -82 86 -27 39 -134 190
-238 337 -104 147 -192 269 -196 272 -4 2 -7 -474 -7 -1057z"/>
</g>
</svg>
